<svg width="40" height="40" viewBox="0 0 40 40" fill="none" xmlns="http://www.w3.org/2000/svg">
<path d="M20.0001 20C20.9167 20 21.7015 19.6736 22.3542 19.0208C23.007 18.3681 23.3334 17.5833 23.3334 16.6667C23.3334 15.75 23.007 14.9653 22.3542 14.3125C21.7015 13.6597 20.9167 13.3333 20.0001 13.3333C19.0834 13.3333 18.2987 13.6597 17.6459 14.3125C16.9931 14.9653 16.6667 15.75 16.6667 16.6667C16.6667 17.5833 16.9931 18.3681 17.6459 19.0208C18.2987 19.6736 19.0834 20 20.0001 20ZM20.0001 32.25C23.389 29.1389 25.9029 26.3125 27.5417 23.7708C29.1806 21.2292 30.0001 18.9722 30.0001 17C30.0001 13.9722 29.0348 11.4931 27.1042 9.56251C25.1737 7.63195 22.8056 6.66668 20.0001 6.66668C17.1945 6.66668 14.8265 7.63195 12.8959 9.56251C10.9654 11.4931 10.0001 13.9722 10.0001 17C10.0001 18.9722 10.8195 21.2292 12.4584 23.7708C14.0973 26.3125 16.6112 29.1389 20.0001 32.25ZM20.0001 36.6667C15.5279 32.8611 12.1876 29.3264 9.97925 26.0625C7.77091 22.7986 6.66675 19.7778 6.66675 17C6.66675 12.8333 8.00703 9.5139 10.6876 7.04168C13.3681 4.56945 16.4723 3.33334 20.0001 3.33334C23.5279 3.33334 26.632 4.56945 29.3126 7.04168C31.9931 9.5139 33.3334 12.8333 33.3334 17C33.3334 19.7778 32.2292 22.7986 30.0209 26.0625C27.8126 29.3264 24.4723 32.8611 20.0001 36.6667Z" fill="#FCC010"/>
</svg>
