<svg width="40" height="40" viewBox="0 0 40 40" fill="none" xmlns="http://www.w3.org/2000/svg">
<path d="M13.3333 23.3333C12.8611 23.3333 12.4653 23.1736 12.1458 22.8542C11.8264 22.5347 11.6667 22.1389 11.6667 21.6667C11.6667 21.1945 11.8264 20.7986 12.1458 20.4792C12.4653 20.1597 12.8611 20 13.3333 20C13.8056 20 14.2014 20.1597 14.5208 20.4792C14.8403 20.7986 15 21.1945 15 21.6667C15 22.1389 14.8403 22.5347 14.5208 22.8542C14.2014 23.1736 13.8056 23.3333 13.3333 23.3333ZM20 23.3333C19.5278 23.3333 19.1319 23.1736 18.8125 22.8542C18.4931 22.5347 18.3333 22.1389 18.3333 21.6667C18.3333 21.1945 18.4931 20.7986 18.8125 20.4792C19.1319 20.1597 19.5278 20 20 20C20.4722 20 20.8681 20.1597 21.1875 20.4792C21.5069 20.7986 21.6667 21.1945 21.6667 21.6667C21.6667 22.1389 21.5069 22.5347 21.1875 22.8542C20.8681 23.1736 20.4722 23.3333 20 23.3333ZM26.6667 23.3333C26.1944 23.3333 25.7986 23.1736 25.4792 22.8542C25.1597 22.5347 25 22.1389 25 21.6667C25 21.1945 25.1597 20.7986 25.4792 20.4792C25.7986 20.1597 26.1944 20 26.6667 20C27.1389 20 27.5347 20.1597 27.8542 20.4792C28.1736 20.7986 28.3333 21.1945 28.3333 21.6667C28.3333 22.1389 28.1736 22.5347 27.8542 22.8542C27.5347 23.1736 27.1389 23.3333 26.6667 23.3333ZM8.33333 36.6667C7.41667 36.6667 6.63194 36.3403 5.97917 35.6875C5.32639 35.0347 5 34.25 5 33.3333V10C5 9.08334 5.32639 8.29862 5.97917 7.64584C6.63194 6.99307 7.41667 6.66668 8.33333 6.66668H10V3.33334H13.3333V6.66668H26.6667V3.33334H30V6.66668H31.6667C32.5833 6.66668 33.3681 6.99307 34.0208 7.64584C34.6736 8.29862 35 9.08334 35 10V33.3333C35 34.25 34.6736 35.0347 34.0208 35.6875C33.3681 36.3403 32.5833 36.6667 31.6667 36.6667H8.33333ZM8.33333 33.3333H31.6667V16.6667H8.33333V33.3333ZM8.33333 13.3333H31.6667V10H8.33333V13.3333Z" fill="#FCC010"/>
</svg>
